<svg width="28" height="28" viewBox="0 0 28 28" fill="black" xmlns="http://www.w3.org/2000/svg">
<path d="M14 0C21.7322 0 28 6.2678 28 14C28 21.7322 21.7322 28 14 28C6.2678 28 0 21.7322 0 14C0 6.2678 6.2678 0 14 0ZM14 2.8C11.0296 2.8 8.18081 3.98 6.0804 6.0804C3.98 8.18081 2.8 11.0296 2.8 14C2.8 16.9704 3.98 19.8192 6.0804 21.9196C8.18081 24.02 11.0296 25.2 14 25.2C16.9704 25.2 19.8192 24.02 21.9196 21.9196C24.02 19.8192 25.2 16.9704 25.2 14C25.2 11.0296 24.02 8.18081 21.9196 6.0804C19.8192 3.98 16.9704 2.8 14 2.8ZM14 5.6C14.3429 5.60005 14.6739 5.72594 14.9301 5.9538C15.1864 6.18166 15.3501 6.49565 15.3902 6.8362L15.4 7V13.4204L19.1898 17.2102C19.4409 17.4621 19.5867 17.8002 19.5975 18.1557C19.6084 18.5113 19.4835 18.8576 19.2483 19.1244C19.013 19.3912 18.685 19.5584 18.3309 19.5922C17.9768 19.6259 17.6232 19.5236 17.3418 19.306L17.2102 19.1898L13.0102 14.9898C12.7926 14.772 12.6529 14.4886 12.6126 14.1834L12.6 14V7C12.6 6.6287 12.7475 6.2726 13.0101 6.01005C13.2726 5.7475 13.6287 5.6 14 5.6Z"/>
</svg>