<svg width="18" height="18" viewBox="0 0 18 18" fill="none" stroke="black" xmlns="http://www.w3.org/2000/svg">
<path d="M16.4 17H6.6C6.44087 17 6.28826 16.9368 6.17574 16.8243C6.06321 16.7117 6 16.5591 6 16.4V6.6C6 6.44087 6.06321 6.28826 6.17574 6.17574C6.28826 6.06321 6.44087 6 6.6 6H16.4C16.5591 6 16.7117 6.06321 16.8243 6.17574C16.9368 6.28826 17 6.44087 17 6.6V16.4C17 16.5591 16.9368 16.7117 16.8243 16.8243C16.7117 16.9368 16.5591 17 16.4 17Z" stroke-opacity="0.7" stroke-width="1.5" stroke-linecap="round" stroke-linejoin="round"/>
<path d="M12 6V1.6C12 1.44087 11.9368 1.28826 11.8243 1.17574C11.7117 1.06321 11.5591 1 11.4 1H1.6C1.44087 1 1.28826 1.06321 1.17574 1.17574C1.06321 1.28826 1 1.44087 1 1.6V11.4C1 11.5591 1.06321 11.7117 1.17574 11.8243C1.28826 11.9368 1.44087 12 1.6 12H6" stroke-opacity="0.7" stroke-width="1.5" stroke-linecap="round" stroke-linejoin="round"/>
</svg>