<svg viewBox="0 0 17.008 17.008" xmlns="http://www.w3.org/2000/svg">
<path style="fill:#00A651;" d="M3.36,15.988c-1.29,0-2.339-1.05-2.339-2.34V3.36c0-1.29,1.049-2.339,2.339-2.339h10.288
	c1.29,0,2.34,1.049,2.34,2.339v10.288c0,1.29-1.05,2.34-2.34,2.34H3.36z"/>
<path style="fill:#FFFFFF;" d="M13.648,1.332c1.118,0,2.028,0.91,2.028,2.028v10.287c0,1.118-0.91,2.028-2.028,2.028H3.36
	c-1.118,0-2.028-0.91-2.028-2.028V3.36c0-1.118,0.91-2.028,2.028-2.028H13.648 M13.648,0.709H3.36
	c-1.458,0-2.652,1.193-2.652,2.652v10.287c0,1.458,1.193,2.652,2.652,2.652h10.287c1.458,0,2.652-1.193,2.652-2.652V3.36
	C16.299,1.902,15.106,0.709,13.648,0.709L13.648,0.709z"/>
<path style="fill:#FFFFFF;" d="M9.232,13.836c-0.624,0-1.248,0-1.872,0c0.002-0.018,0.002-0.036,0.006-0.053
	c0.054-0.233,0.11-0.465,0.162-0.698c0.069-0.31,0.141-0.621,0.143-0.938c0.003-0.409-0.021-0.819-0.035-1.228
	c-0.003-0.101-0.012-0.202-0.018-0.305c-0.147,0.011-0.277-0.037-0.397-0.105c-0.167-0.094-0.329-0.197-0.491-0.301
	c-0.034-0.021-0.057-0.024-0.092-0.007c-0.191,0.094-0.394,0.145-0.607,0.151c-0.51,0.014-0.935-0.173-1.264-0.563
	C4.514,9.488,4.395,9.135,4.406,8.74c0.001-0.021-0.014-0.048-0.03-0.062c-0.413-0.369-0.601-0.83-0.537-1.38
	c0.054-0.466,0.286-0.833,0.672-1.101c0.032-0.022,0.042-0.045,0.043-0.083C4.557,5.997,4.558,5.88,4.575,5.766
	c0.108-0.705,0.756-1.272,1.469-1.289c0.086-0.002,0.173,0,0.259,0c0.159-0.688,0.568-1.15,1.276-1.276
	C8.29,3.075,8.834,3.37,9.222,3.967c0.002,0,0.004,0.001,0.006,0C9.25,3.956,9.273,3.944,9.295,3.932
	C9.51,3.817,9.74,3.751,9.982,3.752c0.656,0.002,1.142,0.297,1.442,0.88c0.051,0.099,0.103,0.144,0.215,0.167
	c0.922,0.182,1.469,1.139,1.167,2.03c-0.014,0.041-0.011,0.067,0.017,0.101c0.28,0.345,0.403,0.742,0.343,1.182
	c-0.082,0.597-0.411,1.016-0.963,1.258c-0.039,0.017-0.049,0.04-0.054,0.076c-0.133,0.978-1.153,1.593-2.081,1.252
	c-0.121-0.045-0.235-0.109-0.356-0.166c0.001-0.001-0.003,0.002-0.007,0.005c-0.206,0.212-0.412,0.424-0.616,0.638
	c-0.016,0.017-0.027,0.043-0.03,0.067c-0.033,0.226-0.071,0.451-0.094,0.678c-0.016,0.156-0.029,0.317-0.009,0.472
	c0.041,0.31,0.104,0.617,0.163,0.925C9.152,13.49,9.194,13.663,9.232,13.836z M9.051,9.434C8.986,9.464,8.926,9.488,8.869,9.518
	c-0.02,0.011-0.042,0.034-0.047,0.056c-0.045,0.192-0.093,0.383-0.126,0.577c-0.019,0.113-0.022,0.23-0.016,0.345
	c0.007,0.117,0.084,0.167,0.191,0.136c0.222-0.066,0.395-0.211,0.569-0.36C9.227,10.03,9.099,9.755,9.051,9.434z M7.59,9.474
	c0.107,0.229,0.217,0.453,0.366,0.654c0.041,0.055,0.088,0.107,0.139,0.151c0.072,0.062,0.133,0.054,0.188-0.025
	c0.032-0.045,0.058-0.096,0.078-0.148c0.06-0.155,0.091-0.318,0.114-0.488C8.164,9.653,7.872,9.603,7.59,9.474z M7.367,9.521
	C7.264,9.658,7.163,9.792,7.061,9.928c0.134,0.088,0.277,0.173,0.441,0.214c0.051,0.013,0.104,0.013,0.17,0.02
	C7.564,9.935,7.465,9.727,7.367,9.521z"/>
</svg>
