<svg viewBox="0 0 12.756 12.756" xmlns="http://www.w3.org/2000/svg">
<path style="fill:#00A64F;" d="M2.262,12.444c-0.823-0.003-1.405-0.367-1.777-1.113c-0.113-0.227-0.171-0.481-0.171-0.756
	c-0.001-2.16-0.001-4.958,0.003-7.119c0.002-0.921,0.654-1.685,1.587-1.856C2.014,1.583,2.7,1.574,3.202,1.567
	c0.161-0.002,0.336-0.082,0.445-0.204C3.954,1.023,4.253,0.675,4.55,0.325l1.693-0.01l1.781,0.003l0.539,0.5
	C8.77,1.011,8.976,1.204,9.186,1.394c0.11,0.101,0.273,0.165,0.435,0.174c0.165,0.008,0.329,0.009,0.493,0.01
	c0.271,0.001,0.542,0.001,0.807,0.042c0.848,0.132,1.515,0.915,1.519,1.782c0.009,2.192,0.008,5.022-0.002,7.214
	c-0.005,0.964-0.851,1.816-1.81,1.824L2.262,12.444z"/>
<path style="fill:#FFFFFF;" d="M4.705,0.624c0.511,0.002,1.021,0.002,1.532,0.002c0.555,0,1.11,0.001,1.665,0.003
	c0.153,0.14,0.304,0.282,0.456,0.423c0.205,0.192,0.41,0.384,0.619,0.572c0.163,0.147,0.398,0.242,0.629,0.254
	c0.168,0.009,0.338,0.01,0.507,0.01c0.27,0.001,0.526,0.003,0.759,0.039c0.689,0.107,1.252,0.769,1.255,1.475
	c0.009,2.191,0.008,5.02-0.003,7.211c-0.004,0.801-0.705,1.508-1.496,1.514l-8.367,0.004c-0.704-0.002-1.18-0.301-1.499-0.94
	c-0.092-0.184-0.138-0.391-0.138-0.617C0.624,8.415,0.624,5.617,0.628,3.457C0.63,2.688,1.177,2.051,1.946,1.909
	c0.124-0.015,0.747-0.024,1.261-0.031c0.247-0.003,0.505-0.121,0.672-0.306C4.159,1.261,4.434,0.944,4.705,0.624 M4.572,0
	C4.457,0,4.384,0.039,4.312,0.123C4.018,0.471,3.72,0.816,3.415,1.155c-0.05,0.055-0.143,0.099-0.217,0.1
	C2.553,1.264,1.968,1.271,1.847,1.294c-1.08,0.199-1.84,1.088-1.842,2.162C0,5.616,0.001,8.415,0.002,10.575
	c0,0.313,0.065,0.616,0.204,0.895c0.422,0.845,1.11,1.282,2.055,1.285l8.369-0.004c1.14-0.008,2.114-0.994,2.119-2.134
	c0.01-2.192,0.011-5.024,0.003-7.217c-0.004-1.01-0.783-1.934-1.783-2.089c-0.436-0.068-0.887-0.033-1.33-0.056
	C9.555,1.252,9.456,1.217,9.395,1.162c-0.39-0.353-0.77-0.718-1.159-1.073c-0.053-0.048-0.14-0.083-0.212-0.084
	C6.874,0.001,5.724,0.005,4.574,0C4.573,0,4.572,0,4.572,0L4.572,0z"/>
<path style="fill:#FFFFFF;" d="M6.37,10.593c-1.991-0.006-3.597-1.622-3.582-3.604C2.802,5,4.4,3.409,6.381,3.412
	c1.984,0.003,3.6,1.627,3.587,3.604C9.956,8.999,8.345,10.6,6.37,10.593z M6.372,9.523c1.387,0.001,2.53-1.137,2.528-2.516
	C8.896,5.618,7.766,4.483,6.38,4.478C4.99,4.473,3.858,5.612,3.857,7.016C3.857,8.392,4.989,9.521,6.372,9.523z"/>
</svg>
