<svg width="30" height="30" viewBox="0 0 30 30" fill="none" xmlns="http://www.w3.org/2000/svg">
<path d="M5.92649 28.2007C3.65109 28.2007 1.80078 26.3486 1.80078 24.0732V5.92649C1.80078 3.65109 3.65109 1.80078 5.92649 1.80078H24.0732C26.3486 1.80078 28.2007 3.65109 28.2007 5.92649V24.0732C28.2007 26.3486 26.3486 28.2007 24.0732 28.2007H5.92649Z" fill="#1B85A1"/>
<path d="M4.00049 7.53887C6.08539 7.53887 8.17205 7.53711 10.257 7.53711C13.1744 7.53711 16.0901 7.53711 19.0075 7.53711C21.2847 7.53711 23.5619 7.53711 25.839 7.53711C25.8867 7.53711 25.936 7.53711 25.9907 7.53711C25.9907 7.83344 25.9907 8.12095 25.9907 8.41905C25.5551 8.41905 25.1264 8.41905 24.6872 8.41905C24.6872 8.86002 24.6872 9.2904 24.6872 9.73137C25.1194 9.73137 25.548 9.73137 25.989 9.73137C25.989 10.6168 25.989 11.49 25.989 12.3807C25.8461 12.3807 25.7015 12.3789 25.5568 12.3807C24.943 12.3878 24.4244 12.797 24.2798 13.3949C24.2533 13.5043 24.241 13.6207 24.241 13.7336C24.2392 15.6897 24.2392 17.6441 24.2392 19.6003C24.2392 19.6567 24.2392 19.7114 24.2392 19.7749C24.6343 19.8225 25.0118 19.8454 25.3857 19.7167C25.6397 19.6302 25.8725 19.7325 25.966 19.9566C26.0648 20.1947 25.9431 20.4504 25.6873 20.5457C25.2852 20.6956 24.8671 20.7133 24.4473 20.685C23.8335 20.6427 23.2408 20.5016 22.6835 20.2353C22.5706 20.1806 22.4612 20.073 22.3483 20.073C22.2372 20.073 22.1278 20.1823 22.0132 20.2353C20.9231 20.7327 19.7995 20.8262 18.6407 20.5263C18.265 20.4293 17.9051 20.2917 17.5682 20.0924C17.5365 20.073 17.473 20.0765 17.4395 20.0941C16.3688 20.6815 15.2346 20.8244 14.0458 20.5845C13.5836 20.491 13.1444 20.3358 12.7352 20.0977C12.6999 20.0765 12.6329 20.0783 12.5976 20.0977C11.7316 20.581 10.8002 20.7556 9.81775 20.6745C9.13689 20.618 8.48955 20.4381 7.89336 20.0941C7.85808 20.0747 7.79106 20.0783 7.75402 20.0994C6.90206 20.5739 5.98838 20.745 5.02354 20.6797C4.88066 20.6709 4.73779 20.6656 4.59668 20.6515C4.33739 20.6268 4.15747 20.4275 4.17511 20.1894C4.19275 19.9424 4.39736 19.7625 4.65841 19.7731C4.96004 19.7837 5.2599 19.7996 5.56152 19.8102C5.62149 19.8119 5.68146 19.8013 5.76084 19.796C5.76084 19.7414 5.76084 19.6937 5.76084 19.6479C5.76084 17.6723 5.7626 15.6968 5.76084 13.7213C5.75907 12.9628 5.17699 12.3878 4.41676 12.3842C4.27918 12.3842 4.13983 12.3825 4.00225 12.3825C4.00225 11.5023 4.00225 10.6221 4.00225 9.74195C4.43969 9.74195 4.87713 9.74195 5.31281 9.74195C5.31281 9.29217 5.31281 8.86354 5.31281 8.42258C4.87008 8.42258 4.43617 8.42258 4.00225 8.42258C4.00049 8.12624 4.00049 7.83168 4.00049 7.53887ZM9.71897 19.7855C10.0523 19.7855 10.3663 19.8084 10.6768 19.7802C11.2976 19.7255 11.8815 19.5509 12.3877 19.1646C12.5676 19.0288 12.7511 19.0323 12.9416 19.1611C13.0315 19.2228 13.1197 19.2898 13.215 19.3445C13.6806 19.6161 14.1922 19.7467 14.7249 19.7872C15.6262 19.856 16.4764 19.7061 17.226 19.1628C17.4095 19.0288 17.5912 19.0305 17.7799 19.1593C17.8769 19.2263 17.9721 19.2969 18.0745 19.3551C18.5948 19.6514 19.1663 19.7678 19.7572 19.8031C19.9265 19.8137 20.0959 19.8049 20.2775 19.8049C20.2775 19.7325 20.2775 19.6885 20.2775 19.6444C20.2775 17.6653 20.2793 15.6862 20.2758 13.7071C20.274 12.9487 19.6919 12.3789 18.9264 12.3772C16.307 12.3754 13.6895 12.3754 11.0701 12.3772C10.2869 12.3772 9.71721 12.9557 9.71721 13.7407C9.71721 15.6792 9.71721 17.6177 9.71721 19.5562C9.71897 19.6285 9.71897 19.6955 9.71897 19.7855ZM8.3943 8.4314C7.65877 8.4314 6.93381 8.4314 6.21062 8.4314C6.21062 8.87236 6.21062 9.30099 6.21062 9.72961C6.94263 9.72961 7.66582 9.72961 8.3943 9.72961C8.3943 9.29393 8.3943 8.86707 8.3943 8.4314ZM9.29035 8.42258C9.29035 8.86707 9.29035 9.29922 9.29035 9.72961C10.0241 9.72961 10.7455 9.72961 11.4687 9.72961C11.4687 9.28864 11.4687 8.85649 11.4687 8.42258C10.7403 8.42258 10.0206 8.42258 9.29035 8.42258ZM12.3666 8.4261C12.3666 8.86707 12.3666 9.29569 12.3666 9.72961C13.0986 9.72961 13.8253 9.72961 14.552 9.72961C14.552 9.2904 14.552 8.86178 14.552 8.4261C13.8235 8.4261 13.1003 8.4261 12.3666 8.4261ZM15.4498 8.42258C15.4498 8.86707 15.4498 9.29922 15.4498 9.73137C16.1818 9.73137 16.905 9.73137 17.63 9.73137C17.63 9.2904 17.63 8.85825 17.63 8.42258C16.8997 8.42258 16.1783 8.42258 15.4498 8.42258ZM20.7132 8.42963C19.9759 8.42963 19.251 8.42963 18.526 8.42963C18.526 8.86884 18.526 9.29746 18.526 9.72961C19.258 9.72961 19.983 9.72961 20.7132 9.72961C20.7132 9.29217 20.7132 8.86531 20.7132 8.42963ZM21.604 9.72784C22.3395 9.72784 23.0662 9.72784 23.7876 9.72784C23.7876 9.28687 23.7876 8.85825 23.7876 8.42787C23.0539 8.42787 22.3325 8.42787 21.604 8.42787C21.604 8.86354 21.604 9.2904 21.604 9.72784Z" fill="white"/>
<path d="M24.7224 22.4547C23.9057 22.43 23.1243 22.2642 22.4081 21.8514C22.3764 21.832 22.3147 21.8356 22.2794 21.8532C20.7113 22.6646 19.145 22.6646 17.5751 21.855C17.5381 21.8356 17.4728 21.8338 17.4375 21.855C16.568 22.34 15.6331 22.5129 14.6471 22.43C13.9645 22.3718 13.3189 22.1936 12.7227 21.8479C12.6927 21.8303 12.6363 21.8338 12.6045 21.8514C11.779 22.3224 10.8865 22.497 9.94813 22.4441C9.23023 22.4035 8.54055 22.2307 7.91438 21.8602C7.85088 21.8232 7.80502 21.8232 7.73975 21.8602C7.16826 22.1954 6.54385 22.3788 5.88769 22.4212C5.46259 22.4476 5.03397 22.4247 4.60887 22.4071C4.34077 22.3965 4.16614 22.1971 4.17673 21.9555C4.18731 21.705 4.39015 21.5233 4.66356 21.5322C4.89991 21.5392 5.13451 21.5674 5.37087 21.5674C5.99881 21.571 6.60205 21.4563 7.16473 21.1688C7.29879 21.1 7.42049 21.0101 7.54396 20.9254C7.72917 20.8002 7.91438 20.7825 8.089 20.9148C8.62522 21.3223 9.24081 21.4898 9.89521 21.5498C10.6237 21.6168 11.324 21.5004 11.9836 21.1776C12.1212 21.1106 12.2482 21.0189 12.3752 20.9307C12.5692 20.7966 12.758 20.7825 12.9414 20.9236C13.4265 21.2976 13.9892 21.4598 14.5801 21.5375C15.2539 21.6274 15.9153 21.548 16.5468 21.2993C16.7779 21.2076 16.9948 21.07 17.2065 20.936C17.4111 20.8055 17.5945 20.7808 17.7833 20.9254C18.2084 21.2517 18.6987 21.4175 19.2173 21.5057C20.1028 21.6556 20.9529 21.548 21.7537 21.1318C21.8613 21.0753 21.9601 21.0012 22.0589 20.9307C22.2565 20.7931 22.4417 20.7878 22.6339 20.9342C23.1384 21.317 23.7222 21.474 24.3361 21.5463C24.71 21.5904 25.0804 21.5833 25.4455 21.4616C25.6766 21.3858 25.9006 21.5233 25.9765 21.7527C26.0488 21.9714 25.9359 22.2077 25.7048 22.2959C25.3909 22.4194 25.0593 22.46 24.7224 22.4547Z" fill="white"/>
</svg>
