<svg width="30" height="20" viewBox="0 0 30 20" fill="none" xmlns="http://www.w3.org/2000/svg">
<path d="M0.933594 0.0711961C3.59996 0.0711961 6.26859 0.0688477 8.93496 0.0688477C12.6661 0.0688477 16.3949 0.0688477 20.126 0.0688477C23.0383 0.0688477 25.9506 0.0688477 28.8628 0.0688477C28.9237 0.0688477 28.9869 0.0688477 29.0568 0.0688477C29.0568 0.46322 29.0568 0.845854 29.0568 1.24257C28.4996 1.24257 27.9515 1.24257 27.3898 1.24257C27.3898 1.82944 27.3898 2.40222 27.3898 2.98908C27.9424 2.98908 28.4906 2.98908 29.0546 2.98908C29.0546 4.1675 29.0546 5.32949 29.0546 6.51495C28.8718 6.51495 28.6869 6.5126 28.5019 6.51495C27.7169 6.52434 27.0536 7.06895 26.8687 7.86473C26.8348 8.01028 26.819 8.16521 26.819 8.31545C26.8168 10.9188 26.8168 13.5197 26.8168 16.1231C26.8168 16.1982 26.8168 16.271 26.8168 16.3555C27.3221 16.4189 27.8048 16.4494 28.2831 16.278C28.6079 16.163 28.9057 16.2991 29.0252 16.5973C29.1516 16.9142 28.9959 17.2545 28.6688 17.3813C28.1545 17.5808 27.6199 17.6043 27.083 17.5668C26.2979 17.5104 25.54 17.3226 24.8272 16.9682C24.6828 16.8954 24.5429 16.7522 24.3986 16.7522C24.2564 16.7522 24.1166 16.8977 23.9699 16.9682C22.5759 17.6301 21.1389 17.7545 19.6568 17.3555C19.1763 17.2264 18.7162 17.0433 18.2853 16.778C18.2447 16.7522 18.1635 16.7569 18.1206 16.7804C16.7514 17.5621 15.3009 17.7522 13.7804 17.4329C13.1894 17.3085 12.6277 17.102 12.1044 16.7851C12.0593 16.7569 11.9735 16.7592 11.9284 16.7851C10.8208 17.4283 9.62975 17.6607 8.37326 17.5527C7.50252 17.4775 6.67464 17.2381 5.91217 16.7804C5.86706 16.7545 5.78133 16.7592 5.73396 16.7874C4.64441 17.4189 3.47589 17.6466 2.24197 17.5597C2.05924 17.548 1.87652 17.5409 1.69606 17.5222C1.36445 17.4893 1.13436 17.224 1.15692 16.9071C1.17948 16.5785 1.44115 16.339 1.77501 16.3531C2.16076 16.3672 2.54424 16.3883 2.92999 16.4024C3.00669 16.4048 3.08338 16.3907 3.18489 16.3836C3.18489 16.3109 3.18489 16.2475 3.18489 16.1865C3.18489 13.5573 3.18715 10.9282 3.18489 8.29901C3.18264 7.28961 2.43822 6.52434 1.46597 6.51965C1.29001 6.51965 1.1118 6.5173 0.93585 6.5173C0.93585 5.34592 0.93585 4.17454 0.93585 3.00316C1.49529 3.00316 2.05473 3.00316 2.61192 3.00316C2.61192 2.40456 2.61192 1.83413 2.61192 1.24727C2.04571 1.24727 1.49078 1.24727 0.93585 1.24727C0.933594 0.852897 0.933594 0.460873 0.933594 0.0711961ZM8.24694 16.3696C8.67329 16.3696 9.07482 16.4001 9.47184 16.3625C10.2659 16.2897 11.0126 16.0573 11.66 15.5432C11.8901 15.3625 12.1247 15.3672 12.3683 15.5386C12.4834 15.6207 12.5961 15.7099 12.718 15.7827C13.3135 16.1442 13.9677 16.3179 14.6489 16.3719C15.8017 16.4635 16.889 16.2639 17.8477 15.5409C18.0823 15.3625 18.3146 15.3648 18.556 15.5362C18.6801 15.6254 18.8019 15.7193 18.9327 15.7968C19.5982 16.1911 20.3291 16.3461 21.0848 16.393C21.3013 16.4071 21.5179 16.3954 21.7502 16.3954C21.7502 16.2991 21.7502 16.2404 21.7502 16.1818C21.7502 13.5479 21.7525 10.9141 21.748 8.28023C21.7457 7.27083 21.0013 6.5126 20.0223 6.51026C16.6724 6.50791 13.3248 6.50791 9.97489 6.51026C8.97331 6.51026 8.24468 7.28022 8.24468 8.32484C8.24468 10.9047 8.24468 13.4845 8.24468 16.0644C8.24694 16.1606 8.24694 16.2498 8.24694 16.3696ZM6.55282 1.25901C5.61215 1.25901 4.68501 1.25901 3.76013 1.25901C3.76013 1.84587 3.76013 2.4163 3.76013 2.98673C4.69629 2.98673 5.62117 2.98673 6.55282 2.98673C6.55282 2.40691 6.55282 1.83883 6.55282 1.25901ZM7.69878 1.24727C7.69878 1.83883 7.69878 2.41395 7.69878 2.98673C8.63719 2.98673 9.55982 2.98673 10.4847 2.98673C10.4847 2.39987 10.4847 1.82474 10.4847 1.24727C9.55305 1.24727 8.63268 1.24727 7.69878 1.24727ZM11.6329 1.25196C11.6329 1.83883 11.6329 2.40926 11.6329 2.98673C12.5691 2.98673 13.4985 2.98673 14.4279 2.98673C14.4279 2.40221 14.4279 1.83178 14.4279 1.25196C13.4962 1.25196 12.5713 1.25196 11.6329 1.25196ZM15.5761 1.24727C15.5761 1.83883 15.5761 2.41395 15.5761 2.98908C16.5122 2.98908 17.4371 2.98908 18.3643 2.98908C18.3643 2.40222 18.3643 1.82709 18.3643 1.24727C17.4304 1.24727 16.5077 1.24727 15.5761 1.24727ZM22.3074 1.25666C21.3645 1.25666 20.4373 1.25666 19.5102 1.25666C19.5102 1.84117 19.5102 2.4116 19.5102 2.98673C20.4464 2.98673 21.3735 2.98673 22.3074 2.98673C22.3074 2.40456 22.3074 1.83648 22.3074 1.25666ZM23.4466 2.98438C24.3873 2.98438 25.3167 2.98438 26.2393 2.98438C26.2393 2.39752 26.2393 1.82709 26.2393 1.25431C25.3009 1.25431 24.3783 1.25431 23.4466 1.25431C23.4466 1.83413 23.4466 2.40221 23.4466 2.98438Z" fill="#32739D"/>
<path d="M27.4345 19.9212C26.39 19.8883 25.3907 19.6677 24.4749 19.1184C24.4343 19.0925 24.3553 19.0972 24.3102 19.1207C22.3048 20.2005 20.3016 20.2005 18.2939 19.1231C18.2466 19.0972 18.1631 19.0949 18.118 19.1231C17.0059 19.7686 15.8103 19.9987 14.5493 19.8883C13.6763 19.8109 12.8507 19.5738 12.0882 19.1137C12.0498 19.0902 11.9777 19.0949 11.9371 19.1184C10.8813 19.7451 9.7399 19.9775 8.5398 19.9071C7.62169 19.8531 6.73967 19.6231 5.93885 19.1301C5.85764 19.0808 5.79899 19.0808 5.71553 19.1301C4.98464 19.5761 4.18609 19.8203 3.34692 19.8766C2.80327 19.9118 2.25511 19.8813 1.71146 19.8578C1.36858 19.8437 1.14525 19.5785 1.15879 19.2569C1.17232 18.9235 1.43174 18.6817 1.78139 18.6935C2.08367 18.7029 2.38369 18.7404 2.68597 18.7404C3.48904 18.7451 4.26053 18.5925 4.98013 18.2099C5.15157 18.1183 5.30722 17.9986 5.46513 17.8859C5.70199 17.7193 5.93885 17.6958 6.16218 17.8719C6.84794 18.4141 7.63522 18.6371 8.47213 18.7169C9.40378 18.8062 10.2993 18.6512 11.143 18.2216C11.319 18.1324 11.4814 18.0104 11.6438 17.893C11.8919 17.7146 12.1333 17.6958 12.3679 17.8836C12.9883 18.3813 13.7079 18.5972 14.4636 18.7005C15.3253 18.8202 16.1712 18.7146 16.9788 18.3836C17.2743 18.2615 17.5518 18.0784 17.8225 17.9C18.0841 17.7263 18.3188 17.6935 18.5601 17.8859C19.1038 18.3202 19.7309 18.5409 20.3941 18.6583C21.5265 18.8578 22.6138 18.7146 23.638 18.1606C23.7756 18.0855 23.9019 17.9869 24.0282 17.893C24.2809 17.7099 24.5177 17.7028 24.7636 17.8977C25.4088 18.4071 26.1554 18.616 26.9405 18.7123C27.4187 18.7709 27.8924 18.7615 28.3594 18.5996C28.6549 18.4986 28.9414 18.6817 29.0384 18.9869C29.1309 19.278 28.9865 19.5925 28.691 19.7099C28.2894 19.8742 27.8653 19.9282 27.4345 19.9212Z" fill="#32739D"/>
</svg>
