<svg width="28" height="28" viewBox="0 0 28 28" fill="none" stroke="black" xmlns="http://www.w3.org/2000/svg">
<path fill-rule="evenodd" clip-rule="evenodd" d="M11.8821 4.67312H16.109V1.45892V0.399902H15.0455H12.9456H11.8821V1.45892V4.67312Z" stroke-width="0.72" stroke-linecap="round" stroke-linejoin="round"/>
<path fill-rule="evenodd" clip-rule="evenodd" d="M6.13232 7.98972L6.90741 4.68262H21.0391L21.8593 7.98972"/>
<path d="M6.13232 7.98972L6.90741 4.68262H21.0391L21.8593 7.98972" stroke-width="0.72" stroke-linecap="round" stroke-linejoin="round"/>
<path fill-rule="evenodd" clip-rule="evenodd" d="M24.4998 14.6964L23.3913 7.98926H4.5279L3.49146 14.6964"/>
<path d="M24.4998 14.6964L23.3913 7.98926H4.5279L3.49146 14.6964" stroke-width="0.72" stroke-linecap="round" stroke-linejoin="round"/>
<path fill-rule="evenodd" clip-rule="evenodd" d="M7.10551 27.5998C2.09451 22.8621 0.400146 15.672 0.400146 15.672L14.0001 11.5288L27.6001 15.672C27.6001 15.672 25.9058 22.8528 20.8858 27.5998C20.8858 27.5998 7.11453 27.3676 7.11453 27.5998H7.10551Z" stroke-width="0.72" stroke-linecap="round" stroke-linejoin="round"/>
</svg>