<svg width="24" height="19" viewBox="0 0 24 19" fill="none" stroke="black" xmlns="http://www.w3.org/2000/svg">
<path fill-rule="evenodd" clip-rule="evenodd" d="M16.7656 6.08606H18.5074V4.76158V4.3252H18.0692H17.2039H16.7656V4.76158V6.08606Z" stroke-width="0.725555" stroke-linecap="round" stroke-linejoin="round"/>
<path d="M14.3964 7.45162L14.7157 6.08887H20.539L20.877 7.45162" stroke-width="0.725555" stroke-linecap="round" stroke-linejoin="round"/>
<path d="M21.965 10.2169L21.5082 7.45312H13.7352L13.3081 10.2169" stroke-width="0.725555" stroke-linecap="round" stroke-linejoin="round"/>
<path fill-rule="evenodd" clip-rule="evenodd" d="M14.7973 15.5335C12.7324 13.5812 12.0342 10.6184 12.0342 10.6184L17.6383 8.91113L23.2424 10.6184C23.2424 10.6184 22.5443 13.5774 20.4757 15.5335C20.4757 15.5335 14.801 15.4378 14.801 15.5335H14.7973Z" stroke-width="0.725555" stroke-linecap="round" stroke-linejoin="round"/>
<path fill-rule="evenodd" clip-rule="evenodd" d="M7.76855 4.01903H10.2603V2.12428V1.5H9.63336H8.39547H7.76855V2.12428V4.01903Z" stroke-width="1.03796" stroke-linecap="round" stroke-linejoin="round"/>
<path fill-rule="evenodd" clip-rule="evenodd" d="M4.37939 5.97197L4.8363 4.02246H13.1668L13.6503 5.97197"/>
<path d="M4.37939 5.97197L4.8363 4.02246H13.1668L13.6503 5.97197" stroke-width="1.03796" stroke-linecap="round" stroke-linejoin="round"/>
<path fill-rule="evenodd" clip-rule="evenodd" d="M15.207 9.92741L14.5535 5.97363H3.43373L2.82275 9.92741"/>
<path d="M15.207 9.92741L14.5535 5.97363H3.43373L2.82275 9.92741" stroke-width="1.03796" stroke-linecap="round" stroke-linejoin="round"/>
<path fill-rule="evenodd" clip-rule="evenodd" d="M4.95276 17.5343C1.99882 14.7415 1 10.5029 1 10.5029L9.01709 8.06055L17.0342 10.5029C17.0342 10.5029 16.0354 14.736 13.0761 17.5343C13.0761 17.5343 4.95807 17.3974 4.95807 17.5343H4.95276Z" stroke-width="1.03796" stroke-linecap="round" stroke-linejoin="round"/>
</svg>