<svg viewBox="0 0 17.008 17.008" xmlns="http://www.w3.org/2000/svg">
<path style="fill:#1B85A1;" d="M3.36,15.988c-1.29,0-2.339-1.05-2.339-2.34V3.36c0-1.29,1.049-2.339,2.339-2.339h10.288
	c1.29,0,2.34,1.049,2.34,2.339v10.288c0,1.29-1.05,2.34-2.34,2.34H3.36z"/>
<path style="fill:#FFFFFF;" d="M13.648,1.332c1.118,0,2.028,0.91,2.028,2.028v10.287c0,1.118-0.91,2.028-2.028,2.028H3.36
	c-1.118,0-2.028-0.91-2.028-2.028V3.36c0-1.118,0.91-2.028,2.028-2.028H13.648 M13.648,0.709H3.36
	c-1.458,0-2.652,1.193-2.652,2.652v10.287c0,1.458,1.193,2.652,2.652,2.652h10.287c1.458,0,2.652-1.193,2.652-2.652V3.36
	C16.299,1.902,15.106,0.709,13.648,0.709L13.648,0.709z"/>
<path style="fill:#FFFFFF;" d="M9.775,9.527c0.036,0.419,0.07,0.816,0.104,1.213c0.055,0.634,0.111,1.269,0.166,1.903
	c0.006,0.074,0.032,0.12,0.106,0.153c0.317,0.142,0.599,0.337,0.852,0.577c0.03,0.029,0.082,0.047,0.125,0.048
	c0.205,0.005,0.41,0.002,0.615,0.003c0.127,0,0.204,0.064,0.202,0.166c-0.002,0.095-0.08,0.157-0.201,0.157
	c-1.216,0-2.432,0-3.648,0c-0.926,0-1.851,0-2.777,0c-0.024,0-0.048,0.001-0.072,0c-0.111-0.004-0.184-0.071-0.183-0.166
	c0.001-0.087,0.076-0.156,0.181-0.157c0.212-0.002,0.424,0.002,0.635-0.002c0.043-0.001,0.096-0.018,0.125-0.047
	c0.255-0.248,0.545-0.443,0.869-0.586c0.059-0.026,0.083-0.062,0.087-0.122c0.005-0.078,0.022-0.157,0.017-0.234
	c-0.01-0.161,0.063-0.271,0.176-0.379c0.594-0.569,1.181-1.145,1.771-1.718c0.262-0.254,0.527-0.506,0.791-0.758
	C9.73,9.565,9.745,9.553,9.775,9.527z"/>
<path style="fill:#FFFFFF;" d="M9.481,6.539c0.063,0,0.107-0.001,0.15,0c0.109,0.004,0.184,0.074,0.181,0.167
	C9.81,6.794,9.737,6.861,9.63,6.861C9.293,6.864,8.955,6.863,8.617,6.863c-0.406,0-0.812,0-1.218-0.001
	c-0.131,0-0.205-0.06-0.205-0.161c0-0.099,0.079-0.161,0.206-0.162c0.037,0,0.073,0,0.119,0c0-0.439,0-0.867,0-1.304
	c0.656,0,1.302,0,1.961,0C9.481,5.662,9.481,6.093,9.481,6.539z M8.507,5.592C8.317,5.593,8.173,5.733,8.174,5.916
	C8.176,6.107,8.32,6.244,8.517,6.243C8.69,6.241,8.833,6.096,8.833,5.922C8.834,5.732,8.694,5.591,8.507,5.592z"/>
<path style="fill:#FFFFFF;" d="M7.048,11.693c0.01-0.138,0.015-0.248,0.025-0.359c0.025-0.278,0.05-0.556,0.081-0.833
	c0.006-0.052,0.03-0.112,0.067-0.148c0.605-0.59,1.213-1.178,1.821-1.765c0.179-0.173,0.359-0.345,0.539-0.516
	c0.014-0.013,0.031-0.024,0.061-0.048c0.019,0.22,0.037,0.425,0.055,0.63c0.01,0.112,0.029,0.223,0.03,0.335
	c0.001,0.051-0.017,0.118-0.051,0.152c-0.625,0.615-1.253,1.225-1.881,1.837c-0.213,0.207-0.426,0.413-0.639,0.619
	C7.128,11.625,7.097,11.65,7.048,11.693z"/>
<path style="fill:#FFFFFF;" d="M7.208,9.893c0.019-0.24,0.036-0.452,0.054-0.663c0.015-0.18,0.029-0.36,0.051-0.539
	c0.005-0.045,0.028-0.098,0.06-0.129C7.84,8.118,8.309,7.677,8.779,7.237c0.022-0.021,0.057-0.04,0.087-0.041
	c0.228-0.003,0.457-0.002,0.701-0.002c0.011,0.124,0.025,0.244,0.029,0.365C9.597,7.586,9.565,7.618,9.541,7.64
	C8.963,8.2,8.384,8.758,7.805,9.317c-0.169,0.164-0.336,0.33-0.505,0.494C7.278,9.833,7.253,9.854,7.208,9.893z"/>
<path style="fill:#FFFFFF;" d="M7.532,4.571c0.089-0.459,0.374-0.704,0.811-0.813c0-0.101-0.001-0.206,0-0.311
	c0.001-0.11,0.067-0.187,0.159-0.188c0.095-0.001,0.161,0.07,0.163,0.182c0.002,0.105,0,0.211,0,0.319
	c0.213,0.049,0.4,0.131,0.55,0.285c0.123,0.125,0.21,0.27,0.239,0.442c0.013,0.073,0.045,0.09,0.109,0.083
	c0.03-0.003,0.062-0.002,0.092,0.001C9.746,4.581,9.805,4.63,9.812,4.72c0.006,0.09-0.046,0.147-0.132,0.169
	C9.65,4.896,9.618,4.895,9.588,4.895c-0.723,0-1.446,0.001-2.169-0.003c-0.058,0-0.129-0.015-0.168-0.051
	C7.216,4.81,7.193,4.729,7.21,4.689C7.231,4.64,7.293,4.595,7.347,4.575C7.401,4.556,7.467,4.571,7.532,4.571z"/>
<path style="fill:#FFFFFF;" d="M7.362,8.109C7.391,7.788,7.417,7.497,7.444,7.2c0.291,0,0.577,0,0.884,0
	C8.006,7.503,7.695,7.796,7.362,8.109z"/>
<path style="fill:#FFFFFF;" d="M10.816,4.917c0.045,0.043,0.104,0.08,0.133,0.132c0.038,0.068,0.003,0.138-0.059,0.176
	c-0.151,0.093-0.305,0.181-0.46,0.265c-0.079,0.043-0.148,0.01-0.195-0.058c-0.046-0.067-0.044-0.152,0.02-0.195
	c0.161-0.107,0.333-0.199,0.501-0.295c0.011-0.006,0.027-0.003,0.04-0.004C10.802,4.931,10.809,4.924,10.816,4.917z"/>
<path style="fill:#FFFFFF;" d="M10.396,6.333c0.009,0.003,0.037,0.007,0.059,0.02c0.142,0.08,0.284,0.16,0.423,0.245
	c0.087,0.053,0.109,0.14,0.064,0.218c-0.043,0.075-0.139,0.105-0.22,0.06c-0.145-0.081-0.293-0.159-0.428-0.255
	c-0.043-0.031-0.073-0.114-0.069-0.171C10.229,6.375,10.295,6.332,10.396,6.333z"/>
<path style="fill:#FFFFFF;" d="M6.193,4.912C6.407,5.03,6.618,5.111,6.775,5.275c0.027,0.028,0.01,0.131-0.022,0.172
	c-0.029,0.037-0.12,0.065-0.159,0.046C6.426,5.412,6.262,5.32,6.107,5.215C6.069,5.189,6.048,5.095,6.062,5.044
	C6.075,4.995,6.142,4.96,6.193,4.912z"/>
<path style="fill:#FFFFFF;" d="M6.172,6.907C6.14,6.876,6.074,6.84,6.06,6.789C6.047,6.739,6.067,6.646,6.105,6.62
	C6.256,6.516,6.417,6.426,6.58,6.342c0.068-0.035,0.141-0.01,0.187,0.06c0.046,0.069,0.045,0.151-0.019,0.193
	C6.581,6.704,6.404,6.798,6.231,6.897C6.222,6.902,6.211,6.901,6.172,6.907z"/>
<path style="fill:#FFFFFF;" d="M6.108,6.07c-0.078,0-0.156,0.002-0.234,0C5.787,6.067,5.727,6.009,5.72,5.925
	c-0.006-0.08,0.05-0.159,0.135-0.163c0.176-0.008,0.353-0.009,0.53-0.004c0.091,0.003,0.152,0.08,0.149,0.163
	c-0.003,0.085-0.066,0.145-0.16,0.15c-0.044,0.002-0.088,0-0.133,0c-0.044,0-0.088,0-0.133,0C6.108,6.071,6.108,6.07,6.108,6.07z"
	/>
<path style="fill:#FFFFFF;" d="M10.881,6.069c-0.085,0-0.17,0.002-0.255-0.001c-0.086-0.003-0.15-0.065-0.151-0.147
	c-0.001-0.085,0.044-0.154,0.127-0.158c0.183-0.01,0.367-0.009,0.55-0.002c0.092,0.004,0.135,0.075,0.135,0.163
	c0.001,0.086-0.065,0.143-0.162,0.146c-0.081,0.002-0.163,0-0.244,0C10.881,6.07,10.881,6.07,10.881,6.069z"/>
</svg>
