<svg viewBox="0 0 17.008 17.008" xmlns="http://www.w3.org/2000/svg">
<path style="fill:#1B85A1;" d="M3.36,15.988c-1.29,0-2.339-1.05-2.339-2.34V3.36c0-1.29,1.049-2.339,2.339-2.339h10.288
	c1.29,0,2.34,1.049,2.34,2.339v10.288c0,1.29-1.05,2.34-2.34,2.34H3.36z"/>
<path style="fill:#FFFFFF;" d="M13.648,1.332c1.118,0,2.028,0.91,2.028,2.028v10.287c0,1.118-0.91,2.028-2.028,2.028H3.36
	c-1.118,0-2.028-0.91-2.028-2.028V3.36c0-1.118,0.91-2.028,2.028-2.028H13.648 M13.648,0.709H3.36
	c-1.458,0-2.652,1.193-2.652,2.652v10.287c0,1.458,1.193,2.652,2.652,2.652h10.287c1.458,0,2.652-1.193,2.652-2.652V3.36
	C16.299,1.902,15.106,0.709,13.648,0.709L13.648,0.709z"/>
<path style="fill:#FFFFFF;" d="M2.268,4.274c1.182,0,2.365-0.001,3.547-0.001c1.654,0,3.307,0,4.961,0c1.291,0,2.582,0,3.873,0
	c0.027,0,0.055,0,0.086,0c0,0.168,0,0.331,0,0.5c-0.247,0-0.49,0-0.739,0c0,0.25,0,0.494,0,0.744c0.245,0,0.488,0,0.738,0
	c0,0.502,0,0.997,0,1.502c-0.081,0-0.163-0.001-0.245,0c-0.348,0.004-0.642,0.236-0.724,0.575
	c-0.015,0.062-0.022,0.128-0.022,0.192c-0.001,1.109-0.001,2.217-0.001,3.326c0,0.032,0,0.063,0,0.099
	c0.224,0.027,0.438,0.04,0.65-0.033c0.144-0.049,0.276,0.009,0.329,0.136c0.056,0.135-0.013,0.28-0.158,0.334
	c-0.228,0.085-0.465,0.095-0.703,0.079c-0.348-0.024-0.684-0.104-1-0.255c-0.064-0.031-0.126-0.092-0.19-0.092
	c-0.063,0-0.125,0.062-0.19,0.092c-0.618,0.282-1.255,0.335-1.912,0.165c-0.213-0.055-0.417-0.133-0.608-0.246
	c-0.018-0.011-0.054-0.009-0.073,0.001c-0.607,0.333-1.25,0.414-1.924,0.278c-0.262-0.053-0.511-0.141-0.743-0.276
	c-0.02-0.012-0.058-0.011-0.078,0c-0.491,0.274-1.019,0.373-1.576,0.327c-0.386-0.032-0.753-0.134-1.091-0.329
	c-0.02-0.011-0.058-0.009-0.079,0.003c-0.483,0.269-1.001,0.366-1.548,0.329c-0.081-0.005-0.162-0.008-0.242-0.016
	c-0.147-0.014-0.249-0.127-0.239-0.262c0.01-0.14,0.126-0.242,0.274-0.236c0.171,0.006,0.341,0.015,0.512,0.021
	c0.034,0.001,0.068-0.005,0.113-0.008c0-0.031,0-0.058,0-0.084c0-1.12,0.001-2.24,0-3.36c-0.001-0.43-0.331-0.756-0.762-0.758
	c-0.078,0-0.157-0.001-0.235-0.001c0-0.499,0-0.998,0-1.497c0.248,0,0.496,0,0.743,0c0-0.255,0-0.498,0-0.748
	c-0.251,0-0.497,0-0.743,0C2.268,4.607,2.268,4.44,2.268,4.274z M5.51,11.217c0.189,0,0.367,0.013,0.543-0.003
	c0.352-0.031,0.683-0.13,0.97-0.349c0.102-0.077,0.206-0.075,0.314-0.002c0.051,0.035,0.101,0.073,0.155,0.104
	c0.264,0.154,0.554,0.228,0.856,0.251c0.511,0.039,0.993-0.046,1.418-0.354c0.104-0.076,0.207-0.075,0.314-0.002
	c0.055,0.038,0.109,0.078,0.167,0.111c0.295,0.168,0.619,0.234,0.954,0.254c0.096,0.006,0.192,0.001,0.295,0.001
	c0-0.041,0-0.066,0-0.091c0-1.122,0.001-2.244-0.001-3.366c-0.001-0.43-0.331-0.753-0.765-0.754c-1.485-0.001-2.969-0.001-4.454,0
	c-0.444,0-0.767,0.328-0.767,0.773c0,1.099,0,2.198,0,3.297C5.51,11.128,5.51,11.166,5.51,11.217z M4.759,4.78
	c-0.417,0-0.828,0-1.238,0c0,0.25,0,0.493,0,0.736c0.415,0,0.825,0,1.238,0C4.759,5.269,4.759,5.027,4.759,4.78z M5.267,4.775
	c0,0.252,0,0.497,0,0.741c0.416,0,0.825,0,1.235,0c0-0.25,0-0.495,0-0.741C6.089,4.775,5.681,4.775,5.267,4.775z M7.011,4.777
	c0,0.25,0,0.493,0,0.739c0.415,0,0.827,0,1.239,0c0-0.249,0-0.492,0-0.739C7.837,4.777,7.427,4.777,7.011,4.777z M8.759,4.775
	c0,0.252,0,0.497,0,0.742c0.415,0,0.825,0,1.236,0c0-0.25,0-0.495,0-0.742C9.581,4.775,9.172,4.775,8.759,4.775z M11.743,4.779
	c-0.418,0-0.829,0-1.24,0c0,0.249,0,0.492,0,0.737c0.415,0,0.826,0,1.24,0C11.743,5.268,11.743,5.026,11.743,4.779z M12.248,5.515
	c0.417,0,0.829,0,1.238,0c0-0.25,0-0.493,0-0.737c-0.416,0-0.825,0-1.238,0C12.248,5.025,12.248,5.267,12.248,5.515z"/>
<path style="fill:#FFFFFF;" d="M14.016,12.73c-0.463-0.014-0.906-0.108-1.312-0.342c-0.018-0.011-0.053-0.009-0.073,0.001
	c-0.889,0.46-1.777,0.46-2.667,0.001c-0.021-0.011-0.058-0.012-0.078,0c-0.493,0.275-1.023,0.373-1.582,0.326
	c-0.387-0.033-0.753-0.134-1.091-0.33c-0.017-0.01-0.049-0.008-0.067,0.002c-0.468,0.267-0.974,0.366-1.506,0.336
	c-0.407-0.023-0.798-0.121-1.153-0.331c-0.036-0.021-0.062-0.021-0.099,0c-0.324,0.19-0.678,0.294-1.05,0.318
	c-0.241,0.015-0.484,0.002-0.725-0.008c-0.152-0.006-0.251-0.119-0.245-0.256c0.006-0.142,0.121-0.245,0.276-0.24
	c0.134,0.004,0.267,0.02,0.401,0.02c0.356,0.002,0.698-0.063,1.017-0.226c0.076-0.039,0.145-0.09,0.215-0.138
	c0.105-0.071,0.21-0.081,0.309-0.006c0.304,0.231,0.653,0.326,1.024,0.36c0.413,0.038,0.81-0.028,1.184-0.211
	c0.078-0.038,0.15-0.09,0.222-0.14c0.11-0.076,0.217-0.084,0.321-0.004c0.275,0.212,0.594,0.304,0.929,0.348
	c0.382,0.051,0.757,0.006,1.115-0.135c0.131-0.052,0.254-0.13,0.374-0.206c0.116-0.074,0.22-0.088,0.327-0.006
	c0.241,0.185,0.519,0.279,0.813,0.329c0.502,0.085,0.984,0.024,1.438-0.212c0.061-0.032,0.117-0.074,0.173-0.114
	c0.112-0.078,0.217-0.081,0.326,0.002c0.286,0.217,0.617,0.306,0.965,0.347c0.212,0.025,0.422,0.021,0.629-0.048
	c0.131-0.043,0.258,0.035,0.301,0.165c0.041,0.124-0.023,0.258-0.154,0.308C14.395,12.71,14.207,12.733,14.016,12.73z"/>
</svg>
