<svg viewBox="0 0 17.008 17.008" xmlns="http://www.w3.org/2000/svg">
<path style="fill:#1B85A1;" d="M3.36,15.988c-1.29,0-2.339-1.05-2.339-2.34V3.36c0-1.29,1.049-2.339,2.339-2.339h10.288
	c1.29,0,2.34,1.049,2.34,2.339v10.288c0,1.29-1.05,2.34-2.34,2.34H3.36z"/>
<path style="fill:#FFFFFF;" d="M13.648,1.332c1.118,0,2.028,0.91,2.028,2.028v10.287c0,1.118-0.91,2.028-2.028,2.028H3.36
	c-1.118,0-2.028-0.91-2.028-2.028V3.36c0-1.118,0.91-2.028,2.028-2.028H13.648 M13.648,0.709H3.36
	c-1.458,0-2.652,1.193-2.652,2.652v10.287c0,1.458,1.193,2.652,2.652,2.652h10.287c1.458,0,2.652-1.193,2.652-2.652V3.36
	C16.299,1.902,15.106,0.709,13.648,0.709L13.648,0.709z"/>
<path style="fill:#FFFFFF;" d="M3.037,13.441c0.06-0.179,0.06-0.183,0.257-0.185c0.717-0.007,1.434-0.014,2.151-0.016
	c1.365-0.003,2.731-0.005,4.096-0.003c1.377,0.002,2.755,0.01,4.132,0.015c0.047,0,0.093,0.003,0.14,0.005
	c0.069,0.003,0.112,0.031,0.128,0.098c0.039,0.162,0.039,0.325,0,0.487c-0.017,0.069-0.06,0.098-0.134,0.098
	c-0.49,0.006-0.98,0.015-1.47,0.016c-2.307,0.003-4.614,0.005-6.922,0.004c-0.727,0-1.454-0.012-2.181-0.019
	c-0.13-0.001-0.161-0.03-0.186-0.158c-0.002-0.009-0.007-0.018-0.01-0.027C3.037,13.651,3.037,13.546,3.037,13.441z"/>
<path style="fill:#FFFFFF;" d="M8.495,6.277c-1.59,0-3.181,0-4.771,0c-0.148,0-0.296-0.005-0.444-0.008
	c-0.084-0.002-0.15-0.05-0.17-0.121C3.09,6.072,3.119,6.007,3.2,5.962c0.784-0.441,1.567-0.883,2.353-1.32
	C6.455,4.14,7.361,3.643,8.265,3.144c0.232-0.128,0.234-0.129,0.466-0.002c1.1,0.606,2.2,1.211,3.298,1.819
	C12.6,5.278,13.167,5.6,13.735,5.92c0.023,0.013,0.046,0.026,0.068,0.04c0.08,0.049,0.109,0.106,0.091,0.179
	c-0.019,0.075-0.089,0.128-0.178,0.129c-0.263,0.004-0.527,0.011-0.79,0.011C11.449,6.281,9.972,6.28,8.495,6.28
	C8.495,6.279,8.495,6.278,8.495,6.277z M8.518,5.615C8.699,5.638,8.873,5.574,9.033,5.45c0.324-0.251,0.438-0.677,0.275-1.052
	C9.149,4.032,8.757,3.822,8.359,3.889C7.91,3.964,7.595,4.36,7.622,4.797C7.648,5.209,8.002,5.655,8.518,5.615z"/>
<path style="fill:#FFFFFF;" d="M4.289,7.521c0.603,0,1.196,0,1.799,0c0,0.026,0,0.049,0,0.073c0,1.446,0,2.893,0.001,4.339
	c0,0.059-0.017,0.074-0.075,0.073c-0.551-0.002-1.102-0.002-1.653,0c-0.058,0-0.074-0.015-0.074-0.074
	c0.002-1.448,0.001-2.897,0.001-4.345C4.289,7.567,4.289,7.547,4.289,7.521z"/>
<path style="fill:#FFFFFF;" d="M10.916,7.521c0.603,0,1.196,0,1.799,0c0,0.028,0,0.053,0,0.079c0,1.337,0,2.674,0,4.011
	c0,0.113-0.001,0.227,0.001,0.34c0.001,0.044-0.015,0.055-0.056,0.055c-0.563-0.001-1.126-0.001-1.689,0
	c-0.049,0-0.055-0.02-0.055-0.061c0.001-0.784,0-1.568,0-2.352c0-0.664,0-1.329,0-1.993C10.916,7.575,10.916,7.551,10.916,7.521z"
	/>
<path style="fill:#FFFFFF;" d="M7.617,7.522c0.593,0,1.179,0,1.77,0c0,1.493,0,2.983,0,4.478c-0.59,0-1.178,0-1.77,0
	C7.617,10.508,7.617,9.018,7.617,7.522z"/>
<path style="fill:#FFFFFF;" d="M8.499,12.983c-1.558,0-3.116,0-4.674,0c-0.124,0-0.202-0.071-0.205-0.195
	c-0.003-0.113-0.003-0.227,0-0.34c0.003-0.12,0.081-0.191,0.201-0.191c3.12,0,6.24,0,9.36,0c0.121,0,0.198,0.071,0.201,0.191
	c0.003,0.115,0.003,0.231,0,0.346c-0.004,0.117-0.082,0.189-0.198,0.189C11.623,12.983,10.061,12.983,8.499,12.983z"/>
<path style="fill:#FFFFFF;" d="M8.498,7.245c-1.578,0-3.157,0-4.735,0c-0.065,0-0.114-0.033-0.129-0.102
	C3.601,6.99,3.592,6.834,3.622,6.679c0.017-0.088,0.061-0.117,0.164-0.12c0.281-0.006,0.563-0.014,0.845-0.014
	c2.174-0.003,4.348-0.005,6.522-0.006c0.62,0,1.24,0.006,1.86,0.01c0.077,0.001,0.154,0.008,0.231,0.01
	c0.068,0.002,0.112,0.035,0.128,0.099c0.042,0.164,0.037,0.33-0.004,0.493c-0.018,0.071-0.062,0.094-0.135,0.094
	C11.654,7.245,10.076,7.245,8.498,7.245C8.498,7.245,8.498,7.245,8.498,7.245z"/>
</svg>
