<svg width="20" height="20" viewBox="0 0 20 20" fill="none" stroke="black" xmlns="http://www.w3.org/2000/svg">
<path d="M19 1L12.5 19C12.4561 19.0957 12.3857 19.1769 12.2971 19.2338C12.2084 19.2906 12.1053 19.3209 12 19.3209C11.8947 19.3209 11.7916 19.2906 11.703 19.2338C11.6143 19.1769 11.5439 19.0957 11.5 19L8.00001 12L1.00001 8.5C0.904268 8.45612 0.823136 8.38568 0.766255 8.29705C0.709375 8.20842 0.679138 8.10531 0.679138 8C0.679138 7.89468 0.709375 7.79158 0.766255 7.70295C0.823136 7.61431 0.904268 7.54387 1.00001 7.5L19 1Z" stroke-linecap="round" stroke-linejoin="round"/>
</svg>