<svg viewBox="0 0 17.01 17.01" xmlns="http://www.w3.org/2000/svg">
<style type="text/css">.st0{fill:#1B85A1;} .st1{fill:#FFFFFF;}</style>
<path class="st0" d="M3.36,15.99c-1.29,0-2.34-1.05-2.34-2.34V3.36c0-1.29,1.05-2.34,2.34-2.34h10.29c1.29,0,2.34,1.05,2.34,2.34
	v10.29c0,1.29-1.05,2.34-2.34,2.34H3.36z"/>
<path class="st1" d="M13.65,1.33c1.12,0,2.03,0.91,2.03,2.03v10.29c0,1.12-0.91,2.03-2.03,2.03H3.36c-1.12,0-2.03-0.91-2.03-2.03
	V3.36c0-1.12,0.91-2.03,2.03-2.03H13.65 M13.65,0.71H3.36c-1.46,0-2.65,1.19-2.65,2.65v10.29c0,1.46,1.19,2.65,2.65,2.65h10.29
	c1.46,0,2.65-1.19,2.65-2.65V3.36C16.3,1.9,15.11,0.71,13.65,0.71L13.65,0.71z"/>
<path class="st1" d="M3.04,13.44c0.06-0.18,0.06-0.18,0.26-0.18c0.72-0.01,1.43-0.01,2.15-0.02c1.37,0,2.73-0.01,4.1,0
	c1.38,0,2.75,0.01,4.13,0.02c0.05,0,0.09,0,0.14,0.01c0.07,0,0.11,0.03,0.13,0.1c0.04,0.16,0.04,0.33,0,0.49
	c-0.02,0.07-0.06,0.1-0.13,0.1c-0.49,0.01-0.98,0.02-1.47,0.02c-2.31,0-4.61,0.01-6.92,0c-0.73,0-1.45-0.01-2.18-0.02
	c-0.13,0-0.16-0.03-0.19-0.16c0-0.01-0.01-0.02-0.01-0.03C3.04,13.65,3.04,13.55,3.04,13.44z"/>
<path class="st1" d="M8.5,12.98c-1.56,0-3.12,0-4.67,0c-0.12,0-0.2-0.07-0.2-0.19c0-0.11,0-0.23,0-0.34c0-0.12,0.08-0.19,0.2-0.19
	c3.12,0,6.24,0,9.36,0c0.12,0,0.2,0.07,0.2,0.19c0,0.12,0,0.23,0,0.35c0,0.12-0.08,0.19-0.2,0.19
	C11.62,12.98,10.06,12.98,8.5,12.98z"/>
<path class="st1" d="M5.46,6.6c0.03,0,0.06,0,0.08,0v5.24h1.05V6.19c0.27-0.22,0.47-0.52,0.57-0.86v6.51H8.2l0-6.68h0.57v6.68
	h1.05l0-6.51c0.1,0.34,0.3,0.64,0.57,0.86v5.65h1.05V6.59c0.03,0,0.06,0,0.08,0c0.98,0,1.77-0.79,1.77-1.77
	c0-0.98-0.79-1.77-1.77-1.77c0,0,0,0-0.01,0H5.46c0,0,0,0,0,0c-0.98,0-1.77,0.79-1.77,1.77C3.68,5.8,4.48,6.6,5.46,6.6z
	 M11.52,3.81L11.52,3.81c0.57,0,1.02,0.46,1.02,1.01c0,0.56-0.45,1.01-1.01,1.01c-0.56,0-1.01-0.46-1.01-1.01
	C10.51,4.26,10.96,3.81,11.52,3.81z M10.07,3.81C9.94,3.98,9.85,4.18,9.8,4.4H7.18C7.13,4.18,7.04,3.98,6.91,3.81H10.07z
	 M5.46,3.81L5.46,3.81L5.46,3.81c0.56,0,1.02,0.46,1.02,1.01c0,0.56-0.45,1.01-1.01,1.01c-0.56,0-1.01-0.46-1.01-1.01
	C4.44,4.26,4.9,3.81,5.46,3.81z"/>
</svg>
