<svg width="24" height="24" viewBox="0 0 24 24" fill="black" xmlns="http://www.w3.org/2000/svg">
<path d="m 12,4.004522 c -1.049999,0 -2.089632,0.2068127 -3.0597426,0.6086158 C 7.9702019,5.0149519 7.0887915,5.6038933 6.3463479,6.3463479 5.6038933,7.0887915 5.0149519,7.9702019 4.6131378,8.9402574 4.2113347,9.910368 4.004522,10.950001 4.004522,12 c 0,1.049999 0.2068127,2.089632 0.6086158,3.059786 0.4018141,0.970045 0.9907555,1.851423 1.7332101,2.593844 0.7424436,0.742422 1.623854,1.33144 2.5939095,1.733199 0.9701106,0.40187 2.0097436,0.608649 3.0597426,0.608649 2.120511,0 4.15423,-0.842337 5.65363,-2.341848 1.499511,-1.4994 2.341848,-3.533119 2.341848,-5.65363 0,-2.120511 -0.842337,-4.1542188 -2.341848,-5.6536521 C 16.15423,4.8469035 14.120511,4.004522 12,4.004522 Z"/>
<path d="m 12,8.75 c -0.69,0 -1.25,0.56 -1.25,1.25 v 0.107 c 0,0.1989 -0.079,0.3897 -0.2197,0.5303 C 10.3897,10.778 10.1989,10.857 10,10.857 9.80109,10.857 9.61032,10.778 9.46967,10.6373 9.32902,10.4967 9.25,10.3059 9.25,10.107 V 10 C 9.25,9.27065 9.53973,8.57118 10.0555,8.05546 10.5712,7.53973 11.2707,7.25 12,7.25 h 0.116 c 0.538,2.5e-4 1.063,0.16522 1.5044,0.47272 0.4414,0.30751 0.7781,0.74281 0.9648,1.24736 0.1866,0.50455 0.2143,1.05412 0.0793,1.57492 -0.135,0.5207 -0.4262,0.9877 -0.8345,1.338 l -0.77,0.66 c -0.0966,0.0839 -0.1742,0.1874 -0.2277,0.3036 -0.0534,0.1162 -0.0815,0.2425 -0.0823,0.3704 v 0.533 c 0,0.1989 -0.079,0.3897 -0.2197,0.5303 C 12.3897,14.421 12.1989,14.5 12,14.5 11.8011,14.5 11.6103,14.421 11.4697,14.2803 11.329,14.1397 11.25,13.9489 11.25,13.75 v -0.533 c 0,-0.697 0.304,-1.359 0.833,-1.812 l 0.771,-0.66 c 0.1759,-0.1508 0.3014,-0.3519 0.3596,-0.5761 C 13.2718,9.9446 13.26,9.70787 13.1796,9.49056 13.0992,9.27325 12.9541,9.08578 12.764,8.95338 12.5738,8.82098 12.3477,8.75 12.116,8.75 Z M 12,17 c 0.2652,0 0.5196,-0.1054 0.7071,-0.2929 C 12.8946,16.5196 13,16.2652 13,16 13,15.7348 12.8946,15.4804 12.7071,15.2929 12.5196,15.1054 12.2652,15 12,15 11.7348,15 11.4804,15.1054 11.2929,15.2929 11.1054,15.4804 11,15.7348 11,16 c 0,0.2652 0.1054,0.5196 0.2929,0.7071 C 11.4804,16.8946 11.7348,17 12,17 Z"/>
</svg>
