<svg width="26" height="30" viewBox="0 0 26 30" fill="black" xmlns="http://www.w3.org/2000/svg">
<path d="M13 29.1668C11.5597 29.1668 10.084 28.9071 8.57292 28.3877C7.06181 27.8682 5.69236 27.1599 4.46458 26.2627C3.23681 25.3654 2.22767 24.3147 1.43717 23.1106C0.646667 21.9064 0.250944 20.6196 0.25 19.2502V15.0002L5.91667 19.2502L3.72083 21.446C4.40556 22.6502 5.49167 23.6891 6.97917 24.5627C8.46667 25.4363 10.0014 25.9911 11.5833 26.2272V13.5835H7.33333V10.7502H11.5833V9.08558C10.7569 8.77864 10.0784 8.26486 9.54758 7.54425C9.0168 6.82364 8.75094 6.00339 8.75 5.0835C8.75 3.90294 9.16319 2.89947 9.98958 2.07308C10.816 1.24669 11.8194 0.833496 13 0.833496C14.1806 0.833496 15.184 1.24669 16.0104 2.07308C16.8368 2.89947 17.25 3.90294 17.25 5.0835C17.25 6.00433 16.9846 6.82505 16.4538 7.54566C15.9231 8.26627 15.244 8.77958 14.4167 9.08558V10.7502H18.6667V13.5835H14.4167V26.2272C15.9986 25.9911 17.5333 25.4363 19.0208 24.5627C20.5083 23.6891 21.5944 22.6502 22.2792 21.446L20.0833 19.2502L25.75 15.0002V19.2502C25.75 20.6196 25.3547 21.9064 24.5642 23.1106C23.7738 24.3147 22.7641 25.3654 21.5354 26.2627C20.3067 27.1599 18.9373 27.8682 17.4271 28.3877C15.9169 28.9071 14.4412 29.1668 13 29.1668ZM13 6.50016C13.4014 6.50016 13.7381 6.36463 14.0101 6.09358C14.2821 5.82252 14.4176 5.48583 14.4167 5.0835C14.4157 4.68116 14.2797 4.34494 14.0087 4.07483C13.7376 3.80472 13.4014 3.66872 13 3.66683C12.5986 3.66494 12.2624 3.80094 11.9913 4.07483C11.7203 4.34872 11.5843 4.68494 11.5833 5.0835C11.5824 5.48205 11.7184 5.81875 11.9913 6.09358C12.2643 6.36841 12.6005 6.50394 13 6.50016Z"/>
</svg>