<svg width="24" height="24" viewBox="0 0 24 24" fill="none" xmlns="http://www.w3.org/2000/svg">
<path d="M21.6 0H2.4C1.07452 0 0 1.07452 0 2.4V21.6C0 22.9255 1.07452 24 2.4 24H21.6C22.9255 24 24 22.9255 24 21.6V2.4C24 1.07452 22.9255 0 21.6 0Z" fill="#FFD400"/>
<path d="M3.5 17H8.65714L11.7429 14L14.8286 17H20.5" stroke="#32739D" stroke-linecap="round"/>
<path d="M3.5 14H5.5" stroke="#32739D" stroke-linecap="round"/>
<path d="M18.5 14H20.5" stroke="#32739D" stroke-linecap="round"/>
<path d="M16.3711 9.17463L17.914 7.60938" stroke="#32739D" stroke-linecap="round"/>
<path d="M7.11463 9.17463L5.57178 7.60938" stroke="#32739D" stroke-linecap="round"/>
<path d="M11.7432 7.08701V5" stroke="#32739D" stroke-linecap="round"/>
<path d="M7.25 14V13.3333C7.25 12.4679 7.53071 11.6257 8.05 10.9333L8.18344 10.7554C8.55602 10.2586 9.03916 9.85542 9.59458 9.57771L9.90542 9.42229C10.4608 9.14458 11.0733 9 11.6943 9H11.8057C12.4267 9 13.0392 9.14458 13.5946 9.42229L13.9054 9.57771C14.4608 9.85542 14.944 10.2586 15.3166 10.7554L15.45 10.9333C15.9693 11.6257 16.25 12.4679 16.25 13.3333V14" stroke="#32739D" stroke-linecap="round"/>
</svg>
