<svg width="30" height="22" viewBox="0 0 30 22" fill="none" xmlns="http://www.w3.org/2000/svg">
<path d="M0.931152 20.9308H9.46711L14.5745 15.9653L19.6819 20.9308H29.0691" stroke="#32739D" stroke-width="1.65517" stroke-linecap="round"/>
<path d="M0.931152 15.9653H4.2415" stroke="#32739D" stroke-width="1.65517" stroke-linecap="round"/>
<path d="M25.7588 15.9653H29.0691" stroke="#32739D" stroke-width="1.65517" stroke-linecap="round"/>
<path d="M22.2349 7.97847L24.7886 5.3877" stroke="#32739D" stroke-width="1.65517" stroke-linecap="round"/>
<path d="M6.91405 7.97847L4.36035 5.3877" stroke="#32739D" stroke-width="1.65517" stroke-linecap="round"/>
<path d="M14.5747 4.52321V1.06885" stroke="#32739D" stroke-width="1.65517" stroke-linecap="round"/>
<path d="M7.1377 15.9653V14.8619C7.1377 13.4293 7.60232 12.0355 8.46183 10.8895L8.68269 10.595C9.29939 9.77271 10.0991 9.10532 11.0184 8.64566L11.5329 8.38842C12.4522 7.92876 13.4659 7.68945 14.4937 7.68945H14.6782C15.706 7.68945 16.7198 7.92876 17.6391 8.38842L18.1536 8.64566C19.0729 9.10532 19.8726 9.77271 20.4892 10.595L20.7101 10.8895C21.5696 12.0355 22.0342 13.4293 22.0342 14.8619V15.9653" stroke="#32739D" stroke-width="1.65517" stroke-linecap="round"/>
</svg>
