<svg width="32" height="25" viewBox="0 0 32 25" fill="none" xmlns="http://www.w3.org/2000/svg">
<path d="M1.51709 19.6895H10.8883L15.9998 23.8273L20.2595 19.6895H30.4826" stroke="#32739D" stroke-width="1.70385" stroke-linecap="round"/>
<path d="M23.6672 16.3793V16.3793C23.6672 15.829 23.6113 15.2801 23.5003 14.7411L23.2242 13.3998C22.9577 12.1057 22.3086 10.9216 21.3609 10.001V10.001C20.6363 9.29715 19.7597 8.76925 18.7986 8.45806L18.7361 8.4378C18.0521 8.21632 17.3376 8.10352 16.6186 8.10352H15.3812C14.6622 8.10352 13.9476 8.21632 13.2636 8.4378L13.2011 8.45806C12.24 8.76925 11.3634 9.29715 10.6388 10.001V10.001C9.69115 10.9216 9.04199 12.1057 8.77557 13.3998L8.4994 14.7411C8.38844 15.2801 8.33252 15.829 8.33252 16.3793V16.3793" stroke="#32739D" stroke-width="1.70385" stroke-linecap="round"/>
<path d="M5.77672 15.5518H1.51709" stroke="#32739D" stroke-width="1.70385" stroke-linecap="round"/>
<path d="M26.2231 15.5518H30.4828" stroke="#32739D" stroke-width="1.70385" stroke-linecap="round"/>
<path d="M22.8149 8.10333L25.3707 5.62061" stroke="#32739D" stroke-width="1.70385" stroke-linecap="round"/>
<path d="M8.33264 8.10333L5.77686 5.62061" stroke="#32739D" stroke-width="1.70385" stroke-linecap="round"/>
<path d="M16 4.7932V2.31048V1.48291" stroke="#32739D" stroke-width="1.70385" stroke-linecap="round"/>
</svg>
