<svg viewBox="0 0 17.008 17.008" xmlns="http://www.w3.org/2000/svg">
<path style="fill:#FFFFFF;" d="M9.695,12.204c-0.795,0-1.591,0-2.374,0c0-0.591-0.017-1.176,0.003-1.759
	c0.053-1.508,0.13-3.015,0.177-4.523c0.009-0.301,0.076-0.539,0.291-0.757c0.24-0.242,0.446-0.516,0.704-0.82
	c0.319,0.378,0.628,0.739,0.93,1.108c0.04,0.048,0.048,0.132,0.051,0.2c0.083,2.144,0.164,4.288,0.244,6.431
	C9.724,12.117,9.708,12.15,9.695,12.204z"/>
<path style="fill:#FFFFFF;" d="M12.735,13.844c0,0.307,0,0.588,0,0.896c-2.818,0-5.628,0-8.461,0c0-0.29,0-0.579,0-0.896
	C7.079,13.844,9.888,13.844,12.735,13.844z"/>
<path style="fill:#FFFFFF;" d="M6.671,13.477c0-0.297,0-0.574,0-0.872c1.218,0,2.421,0,3.644,0c0,0.29,0,0.568,0,0.872
	C9.112,13.477,7.909,13.477,6.671,13.477z"/>
<polygon style="fill:#FFFFFF;" points="8.519,2.268 8.877,2.994 9.678,3.11 9.099,3.676 9.235,4.474 8.519,4.097 7.802,4.474 
	7.939,3.676 7.359,3.11 8.16,2.994"/>
<path style="fill:#1B85A1;" d="M3.36,15.988c-1.29,0-2.339-1.05-2.339-2.34V3.36c0-1.29,1.049-2.339,2.339-2.339h10.288
	c1.29,0,2.34,1.049,2.34,2.339v10.288c0,1.29-1.05,2.34-2.34,2.34H3.36z"/>
<path style="fill:#FFFFFF;" d="M13.648,1.332c1.118,0,2.028,0.91,2.028,2.028v10.287c0,1.118-0.91,2.028-2.028,2.028H3.36
	c-1.118,0-2.028-0.91-2.028-2.028V3.36c0-1.118,0.91-2.028,2.028-2.028H13.648 M13.648,0.709H3.36
	c-1.458,0-2.652,1.193-2.652,2.652v10.287c0,1.458,1.193,2.652,2.652,2.652h10.287c1.458,0,2.652-1.193,2.652-2.652V3.36
	C16.299,1.902,15.106,0.709,13.648,0.709L13.648,0.709z"/>
<polygon style="fill:#FFFFFF;" points="8.504,8.679 5.974,14.74 11.034,14.74 "/>
<polygon style="fill:#FFFFFF;" points="8.519,3.062 9.594,5.24 11.998,5.59 10.258,7.285 10.669,9.68 8.519,8.549 6.368,9.68 
	6.779,7.285 5.039,5.59 7.444,5.24 	"/>
</svg>
