<svg viewBox="0 0 17.008 17.008" xmlns="http://www.w3.org/2000/svg">
<path style="fill:#1B85A1;" d="M3.36,15.988c-1.29,0-2.339-1.05-2.339-2.34V3.36c0-1.29,1.049-2.339,2.339-2.339h10.288
	c1.29,0,2.34,1.049,2.34,2.339v10.288c0,1.29-1.05,2.34-2.34,2.34H3.36z"/>
<path style="fill:#FFFFFF;" d="M13.648,1.332c1.118,0,2.028,0.91,2.028,2.028v10.287c0,1.118-0.91,2.028-2.028,2.028H3.36
	c-1.118,0-2.028-0.91-2.028-2.028V3.36c0-1.118,0.91-2.028,2.028-2.028H13.648 M13.648,0.709H3.36
	c-1.458,0-2.652,1.193-2.652,2.652v10.287c0,1.458,1.193,2.652,2.652,2.652h10.287c1.458,0,2.652-1.193,2.652-2.652V3.36
	C16.299,1.902,15.106,0.709,13.648,0.709L13.648,0.709z"/>
<path style="fill:#FFFFFF;" d="M4.618,13.428c-0.055-0.008-0.111-0.015-0.172-0.024c0-0.091,0-0.182,0-0.283
	c0.142-0.015,0.283-0.029,0.448-0.046C4.855,13.037,4.83,13.007,4.8,12.983c-0.324-0.255-0.473-0.605-0.54-0.999
	c-0.018-0.108-0.012-0.115,0.099-0.113c0.733,0.012,1.466,0.03,2.198,0.036c0.323,0.003,0.646-0.016,0.969-0.029
	c0.986-0.04,1.956-0.189,2.912-0.432c0.715-0.181,1.398-0.442,2.027-0.832c0.19-0.118,0.19-0.117,0.291,0.083
	c0,0.115,0,0.231,0,0.346c-0.007,0.02-0.016,0.04-0.02,0.061c-0.125,0.677-0.365,1.303-0.805,1.842
	c-0.017,0.021-0.033,0.045-0.059,0.081c0.11,0.021,0.206,0.043,0.303,0.058c0.1,0.016,0.2,0.027,0.308,0.041
	c0,0.055-0.001,0.102,0,0.15c0.001,0.051,0.002,0.102,0.004,0.153c-0.058,0-0.115,0-0.173,0c-0.018-0.006-0.035-0.016-0.053-0.017
	c-0.297-0.021-0.572-0.109-0.819-0.275c-0.061-0.041-0.103-0.036-0.162,0.001c-0.59,0.372-1.182,0.36-1.771-0.001
	c-0.057-0.035-0.093-0.036-0.153,0c-0.563,0.345-1.137,0.372-1.712,0.034c-0.097-0.057-0.165-0.066-0.265-0.009
	c-0.581,0.333-1.16,0.341-1.73-0.032c-0.048-0.032-0.082-0.022-0.13-0.002c-0.205,0.088-0.412,0.172-0.621,0.251
	c-0.07,0.027-0.148,0.033-0.222,0.049C4.656,13.428,4.637,13.428,4.618,13.428z"/>
<path style="fill:#FFFFFF;" d="M8.499,4.129c0.052,0.006,0.084,0.005,0.114,0.014C9.41,4.37,10.15,4.71,10.792,5.244
	c0.838,0.696,1.362,1.587,1.631,2.635c0.153,0.595,0.224,1.199,0.195,1.814c-0.009,0.195-0.007,0.201-0.201,0.196
	c-1.31-0.036-2.438,0.444-3.459,1.224c-0.099,0.076-0.197,0.154-0.295,0.23c-0.002,0.001-0.006,0-0.003,0
	C9.186,8.932,9.052,6.535,8.499,4.129z"/>
<path style="fill:#FFFFFF;" d="M8.24,5.445c0.055,0.334,0.125,0.666,0.162,1.001C8.448,6.862,8.48,7.28,8.495,7.698
	c0.014,0.396,0.003,0.794-0.004,1.19c-0.013,0.688-0.121,1.366-0.241,2.041c-0.02,0.11-0.079,0.175-0.182,0.196
	c-0.231,0.047-0.462,0.101-0.697,0.127c-0.716,0.081-1.422,0.002-2.122-0.155c-0.021-0.005-0.042-0.013-0.082-0.026
	c1.425-1.66,2.385-3.562,3.039-5.629C8.217,5.443,8.229,5.444,8.24,5.445z"/>
<path style="fill:#FFFFFF;" d="M6.013,4.39c0.065-0.012,0.106-0.021,0.146-0.027c0.292-0.041,0.534-0.185,0.765-0.359
	c0.14-0.106,0.283-0.21,0.433-0.303C7.519,3.6,7.704,3.573,7.892,3.581C7.99,3.584,8.016,3.615,7.982,3.7
	C7.906,3.883,7.929,4.062,7.982,4.244c0.015,0.052,0.026,0.106,0.039,0.159c0.04,0.17,0.023,0.214-0.142,0.28
	C7.212,4.944,6.602,4.825,6.013,4.39z"/>
</svg>
