<svg viewBox="0 0 17.008 17.008" xmlns="http://www.w3.org/2000/svg">
<path style="fill:#1B85A1;" d="M3.36,15.988c-1.29,0-2.339-1.05-2.339-2.34V3.36c0-1.29,1.049-2.339,2.339-2.339h10.288
	c1.29,0,2.34,1.049,2.34,2.339v10.288c0,1.29-1.05,2.34-2.34,2.34H3.36z"/>
<path style="fill:#FFFFFF;" d="M13.648,1.332c1.118,0,2.028,0.91,2.028,2.028v10.287c0,1.118-0.91,2.028-2.028,2.028H3.36
	c-1.118,0-2.028-0.91-2.028-2.028V3.36c0-1.118,0.91-2.028,2.028-2.028H13.648 M13.648,0.709H3.36
	c-1.458,0-2.652,1.193-2.652,2.652v10.287c0,1.458,1.193,2.652,2.652,2.652h10.287c1.458,0,2.652-1.193,2.652-2.652V3.36
	C16.299,1.902,15.106,0.709,13.648,0.709L13.648,0.709z"/>
<path style="fill:#FFFFFF;" d="M3.049,9.67c0.008-0.1,0.016-0.2,0.023-0.301C3.095,9.065,3.15,8.767,3.264,8.483
	C3.338,8.297,3.43,8.118,3.518,7.938c0.019-0.04,0.052-0.073,0.08-0.11c0.843,0.385,1.618,0.85,2.157,1.651
	c-0.442,0.053-0.88,0.072-1.31,0.196c0.075,0.094,0.141,0.184,0.215,0.268c0.26,0.293,0.531,0.576,0.845,0.812
	c0.421,0.316,0.867,0.592,1.354,0.796c0.054,0.023,0.111,0.043,0.169,0.052c0.114,0.018,0.208-0.03,0.29-0.105
	c0.123-0.113,0.195-0.258,0.252-0.41c0.1-0.265,0.154-0.542,0.19-0.821C7.832,9.686,7.817,9.103,7.82,8.52
	C7.822,8.085,7.82,7.65,7.821,7.215c0-0.021,0-0.043,0-0.072c-0.112,0-0.218,0.001-0.324,0C7.254,7.139,7.011,7.138,6.768,7.127
	C6.6,7.12,6.487,7.009,6.465,6.857c-0.027-0.183,0.084-0.391,0.35-0.391c0.314,0,0.628-0.006,0.943-0.009c0.018,0,0.035,0,0.061,0
	c0.001-0.023,0.003-0.044,0.003-0.064c0-0.249-0.001-0.498,0.001-0.747c0-0.038-0.01-0.062-0.042-0.083
	c-0.276-0.18-0.469-0.426-0.571-0.739C6.958,4.051,7.451,3.22,8.247,3.071c0.784-0.147,1.527,0.397,1.61,1.189
	c0.056,0.529-0.156,0.946-0.573,1.262c-0.061,0.047-0.094,0.09-0.094,0.172C9.189,5.933,9.177,6.171,9.169,6.41
	c0,0.013,0,0.027,0,0.047c0.025,0,0.046,0,0.067,0c0.322,0.003,0.644,0.005,0.966,0.01c0.203,0.003,0.303,0.099,0.342,0.272
	c0.035,0.154-0.061,0.314-0.218,0.371c-0.058,0.021-0.123,0.028-0.186,0.029C9.839,7.143,9.536,7.142,9.234,7.144
	c-0.02,0-0.039,0-0.067,0c0,0.125,0,0.246,0,0.367c0.002,0.556-0.003,1.112,0.009,1.668c0.007,0.327,0.037,0.654,0.066,0.98
	c0.026,0.289,0.075,0.575,0.167,0.851c0.05,0.15,0.109,0.297,0.215,0.419c0.086,0.1,0.186,0.181,0.327,0.173
	c0.059-0.004,0.12-0.023,0.176-0.045c0.391-0.154,0.753-0.362,1.098-0.602C11.62,10.68,11.98,10.364,12.298,10
	c0.09-0.104,0.175-0.213,0.266-0.326c-0.428-0.126-0.864-0.142-1.306-0.199c0.019-0.03,0.03-0.05,0.043-0.069
	c0.367-0.506,0.831-0.902,1.375-1.204c0.221-0.122,0.45-0.227,0.675-0.343c0.057-0.03,0.086-0.012,0.117,0.038
	c0.22,0.351,0.349,0.735,0.426,1.139c0.05,0.261,0.057,0.525,0.062,0.79c0.004,0.211,0.001,0.423,0.001,0.634
	c0,0.019-0.004,0.039-0.008,0.072c-0.037-0.024-0.068-0.043-0.097-0.064c-0.245-0.176-0.488-0.356-0.736-0.528
	c-0.162-0.112-0.139-0.089-0.176,0.069c-0.116,0.497-0.303,0.966-0.583,1.395c-0.345,0.53-0.794,0.948-1.351,1.25
	c-0.431,0.234-0.888,0.406-1.342,0.586c-0.183,0.072-0.365,0.148-0.545,0.227c-0.247,0.108-0.45,0.273-0.617,0.493
	c-0.193-0.298-0.494-0.447-0.808-0.576c-0.383-0.158-0.77-0.304-1.151-0.465c-0.514-0.218-0.989-0.5-1.392-0.894
	c-0.306-0.299-0.537-0.649-0.728-1.03c-0.174-0.348-0.292-0.714-0.382-1.09c-0.004-0.015-0.008-0.03-0.017-0.06
	c-0.321,0.23-0.636,0.456-0.958,0.686c-0.006-0.039-0.012-0.07-0.017-0.102C3.049,10.176,3.049,9.923,3.049,9.67z M8.488,5.09
	c0.387,0.002,0.678-0.282,0.684-0.666c0.004-0.31-0.225-0.677-0.695-0.681c-0.321-0.003-0.657,0.335-0.66,0.669
	C7.813,4.778,8.179,5.125,8.488,5.09z"/>
</svg>
